<?xml version="1.0" encoding="UTF-8"?><svg id="Capa_1" xmlns="http://www.w3.org/2000/svg" width="192" height="192" xmlns:xlink="http://www.w3.org/1999/xlink" viewBox="0 0 192 192"><defs><style>.cls-1{fill:#53ace1;}.cls-1,.cls-2,.cls-3,.cls-4{fill-rule:evenodd;}.cls-2{fill:#1c1a37;}.cls-3{fill:#008b77;}.cls-5{fill:#56b99e;}.cls-6{clip-path:url(#clippath);}.cls-7{fill:none;}.cls-8{fill:#d9d9d9;}.cls-4{fill:#303182;}</style><clipPath id="clippath"><rect class="cls-7" width="192" height="192"/></clipPath></defs><g class="cls-6"><g><path class="cls-3" d="m98.3,175.8c-.3,0-.5,0-.7.2-.2.1-.3.3-.4.5-.1.2-.2.5-.2.7,0,.3,0,.5,0,.8,0,.3,0,.6,0,.8,0,.3.1.5.2.7.1.2.3.4.4.5.2.1.4.2.7.2.1,0,.3,0,.4,0,.1,0,.3-.1.4-.2.1,0,.3-.2.4-.4.1-.1.3-.3.4-.5v-2.3c-.3-.3-.6-.6-.9-.8-.3-.2-.5-.3-.8-.3Zm9-.9c-.2,0-.5.1-.6.2s-.3.3-.4.4c-.1.2-.2.4-.2.6s0,.5,0,.7l2.9-.4c0-.5-.2-1-.5-1.2-.3-.3-.7-.4-1.1-.3Zm.7-1.4c.3,0,.5,0,.7.1.4.1.8.3,1.1.6s.5.6.7,1c.2.4.3.8.4,1.3v.3c0,.2,0,.4,0,.5,0,.1-.2.2-.4.2l-4.2.5c0,.3.1.6.2.8,0,.2.2.4.4.6.2.1.4.3.6.3.3,0,.5,0,.9,0,.3,0,.6-.1.9-.2.3,0,.5-.2.7-.2.2,0,.3-.2.4-.2.1,0,.2-.1.3-.1,0,0,0,0,.1,0,0,0,0,0,0,0,0,0,0,.1,0,.2,0,0,0,.2,0,.3,0,.1,0,.2,0,.3,0,0,0,.1,0,.2,0,0,0,.1,0,.1,0,0,0,0,0,.1,0,0-.1,0-.3.2-.1,0-.3.2-.6.3-.2,0-.5.2-.8.3-.3,0-.6.1-1,.2-.6,0-1.2,0-1.6,0-.5,0-.9-.3-1.2-.6-.3-.3-.6-.6-.8-1.1s-.4-1-.4-1.7c0-.6,0-1.2,0-1.7,0-.5.3-1,.5-1.3.3-.4.6-.7,1-.9.4-.2.9-.4,1.4-.4.3,0,.6,0,.8,0Zm-31.6-.3c-.1,0-.3,0-.4,0-.2,0-.4.2-.6.3-.2.2-.3.4-.5.6-.1.3-.2.6-.3.9,0,.3-.1.6-.1.9,0,.3,0,.6,0,.8,0,.2.2.4.4.6.2.2.4.3.8.4.3,0,.6,0,.8,0,.2,0,.4-.2.6-.3.2-.2.3-.4.5-.6.1-.3.2-.6.3-.9,0-.3.1-.6.1-.9,0-.3,0-.6,0-.8,0-.2-.2-.4-.4-.6-.2-.2-.4-.3-.8-.4-.1,0-.3,0-.4,0Zm6.5,0c.1,0,.2,0,.4,0,.2,0,.3,0,.4,0,.1,0,.2,0,.2,0,0,0,0,0,.1.1,0,0,0,0,0,.1v.8c.3-.4.8-.6,1.2-.8.4-.2.8-.2,1.3-.1.5,0,.9.2,1.2.4.3.2.5.4.7.7.2.3.3.6.3,1,0,.4,0,.8,0,1.3l-.6,4.2c0,0,0,0,0,.1,0,0,0,0-.2,0s-.2,0-.3,0c-.1,0-.3,0-.5,0-.2,0-.3,0-.5,0-.1,0-.2,0-.3,0,0,0-.1,0-.1-.1s0,0,0-.1l.5-3.9c0-.3,0-.6,0-.8,0-.2,0-.4-.1-.5,0-.1-.2-.3-.3-.4-.1,0-.3-.2-.5-.2-.2,0-.5,0-.8.2-.3.1-.6.4-.9.7l-.6,4.6c0,0,0,0,0,.1,0,0,0,0-.2,0,0,0-.2,0-.3,0-.1,0-.3,0-.5,0-.2,0-.3,0-.5,0-.1,0-.2,0-.3,0,0,0-.1,0-.1-.1,0,0,0,0,0-.1l.9-6.9c0,0,0,0,0-.1,0,0,0,0,.2,0,0,0,.2,0,.3,0Zm-6.6-1.5c.3,0,.6,0,.9.1.6.1,1.1.3,1.5.6.4.3.7.6.9,1,.2.4.3.8.4,1.3,0,.5,0,1-.2,1.6-.1.6-.3,1.1-.6,1.5-.3.4-.6.8-1,1.1-.4.3-.8.4-1.4.5-.5,0-1.1,0-1.7-.1-.6-.1-1.1-.3-1.5-.6-.4-.3-.7-.6-.9-1-.2-.4-.3-.8-.4-1.3,0-.5,0-1,.2-1.6.1-.6.3-1.1.6-1.5.3-.4.6-.8,1-1.1.4-.3.8-.4,1.3-.5.3,0,.5,0,.8,0Zm24.5-.8c.2,0,.4,0,.5,0,.1,0,.2,0,.3,0,0,0,.1,0,.2.1,0,0,0,0,0,.1l.2,10.2c0,0,0,.1,0,.1,0,0,0,0-.1,0,0,0-.1,0-.3,0-.1,0-.2,0-.4,0-.2,0-.3,0-.4,0-.1,0-.2,0-.3,0,0,0-.1,0-.1,0,0,0,0,0,0-.1v-.8c-.4.4-.7.7-1.1.9-.4.2-.8.3-1.3.3-.5,0-1,0-1.4-.3-.4-.2-.7-.5-.9-.8-.2-.3-.4-.7-.5-1.2-.1-.5-.2-.9-.2-1.5,0-.6,0-1.2.2-1.7.1-.5.3-.9.6-1.3.2-.4.6-.6.9-.8.4-.2.8-.3,1.3-.3.4,0,.7,0,1.1.2.3.2.6.4,1,.7v-3.8c0,0,0,0,0-.1,0,0,0,0,.2-.1,0,0,.2,0,.3,0,.1,0,.3,0,.5,0Zm-30.8-.9c0,0,.2,0,.3,0s.3,0,.5.1c.2,0,.3.1.4.2.1,0,.2.1.3.2,0,0,.1,0,.1.1,0,0,0,0,0,.1l-2.1,6.6s0,0,0,.1c0,0-.1,0-.2,0,0,0-.2,0-.3,0-.1,0-.3,0-.5-.1s-.3-.1-.4-.2c-.1,0-.2,0-.3-.1,0,0-.1,0-.1-.1,0,0,0,0,0-.1l2.1-6.6s0,0,0-.1c0,0,.1,0,.2,0Zm8.5-1.2c0,0,.2,0,.3,0,.1,0,.3,0,.4,0,.2,0,.4.1.5.2.1,0,.2.1.3.2,0,0,0,.1,0,.2,0,0,0,0-.1.1l-1.9,1.4c0,0-.1,0-.2,0,0,0-.1,0-.2,0,0,0-.2,0-.3,0,0,0-.2,0-.4,0-.2,0-.3,0-.4-.1-.1,0-.2,0-.2-.1,0,0,0,0,0-.1,0,0,0-.1.1-.2l1.5-1.5s.1,0,.2-.1c0,0,.1,0,.2,0Zm49.6-.3c0,0,.1,0,.2,0,0,0,0,0,0,.1l2.5,6.4s0,0,0,.1c0,0,0,0-.1.1,0,0-.1.1-.3.2-.1,0-.3.1-.4.2s-.3.1-.5.2c-.1,0-.2,0-.3,0s-.1,0-.2,0c0,0,0,0,0-.1l-2.5-6.4s0,0,0-.1c0,0,0,0,.1-.2,0,0,.1-.1.3-.2.1,0,.3-.1.4-.2.2,0,.3-.1.5-.2.1,0,.2,0,.3,0Zm-63.3-.4c.5,0,.9.1,1.4.3.2,0,.4.2.5.3.2.1.3.2.5.3.1.1.3.2.4.4,0,.1.2.2.2.3,0,0,0,.1,0,.2,0,0,0,0,0,.2,0,0,0,.1,0,.2,0,0,0,.2-.1.3-.1.3-.2.5-.3.6,0,0-.2.1-.3,0,0,0-.2-.1-.2-.2,0-.1-.1-.2-.2-.4,0-.1-.2-.3-.4-.4-.1-.1-.3-.3-.6-.3-.5-.2-.9-.2-1.3.1-.4.3-.7.7-1,1.4-.1.3-.2.7-.3,1,0,.3,0,.5,0,.8s.2.4.3.6c.2.2.3.3.6.4.3,0,.5.1.7.1.2,0,.4,0,.6,0,.2,0,.3,0,.4-.1.1,0,.2,0,.3,0,0,0,0,0,0,0,0,0,0,0,0,.2,0,0,0,.2,0,.3,0,.1,0,.2-.1.4,0,.1,0,.2-.1.3,0,0,0,.1-.1.2,0,0,0,0,0,.1,0,0,0,0-.2,0,0,0-.2,0-.4,0-.2,0-.4,0-.6,0-.2,0-.4,0-.6,0-.2,0-.5-.1-.7-.2-.5-.2-.9-.4-1.2-.8-.3-.3-.6-.7-.7-1.1-.1-.4-.2-.8-.2-1.3,0-.5.2-1,.4-1.6.3-.6.6-1.2.9-1.6.4-.4.7-.7,1.1-.9.4-.2.8-.3,1.3-.3Zm58.6-.5c0,0,.1,0,.2,0,0,0,0,0,0,.1l2.5,8.7c0,.1,0,.2,0,.3,0,.1,0,.2,0,.3,0,0-.1.1-.2.2,0,0-.2,0-.3.1l-.8.2c-.2,0-.3,0-.5,0-.1,0-.3,0-.4,0-.1,0-.3-.2-.4-.3-.1-.1-.3-.3-.5-.5l-3.7-3.8c-.2-.2-.4-.5-.7-.7-.2-.3-.5-.5-.7-.8h0c.1.4.2.7.4,1.1.1.4.2.7.3,1.1l1.5,5.1s0,0,0,.1c0,0,0,0-.1.1,0,0-.1,0-.3.1-.1,0-.3,0-.4.1-.2,0-.3,0-.4.1-.1,0-.2,0-.3,0,0,0-.1,0-.2,0,0,0,0,0,0-.1l-2.5-8.7c0-.2,0-.4,0-.6.1-.2.3-.3.5-.3l1.1-.3c.2,0,.4,0,.5,0,.1,0,.3,0,.4,0,.1,0,.3.1.4.2.1.1.3.2.4.4l2.9,3c.2.2.3.4.5.5.2.2.3.4.5.5.2.2.3.4.5.5.2.2.3.3.5.5h0c-.1-.3-.2-.7-.3-1.1-.1-.4-.2-.7-.3-1.1l-1.3-4.5s0,0,0-.1,0,0,.1-.1.1,0,.3-.1c.1,0,.3,0,.4-.1.2,0,.3,0,.4-.1.1,0,.2,0,.3,0Zm-52.2-.4c.2,0,.3,0,.5.1.4.1.7.3.8.5.1.2,0,.5,0,.8-.1.4-.3.6-.5.7-.2,0-.5,0-.9,0-.4-.1-.7-.3-.8-.5-.1-.2,0-.5,0-.8.1-.4.3-.6.5-.7,0,0,.2,0,.4,0Zm71-.9l-.6.4c-.3.2-.5.3-.7.5-.2.2-.3.3-.4.5,0,.2-.1.3,0,.4,0,.1,0,.3.2.4.1.2.3.4.6.4.2,0,.5,0,.8-.2.2-.1.4-.3.5-.6.1-.2.2-.5.3-.9l-.6-1Zm-7.4-.5c.2,0,.3,0,.4,0,0,0,.1,0,.2,0,0,0,0,0,.1.1s0,.1.1.2,0,.2.2.3c.1.3.2.5.2.6,0,.1,0,.2-.1.3,0,0-.2,0-.3,0-.1,0-.3,0-.4,0-.2,0-.3,0-.5,0s-.4,0-.7.2c-.5.2-.7.6-.8,1,0,.5,0,1,.4,1.7.2.3.3.6.5.8.2.2.4.4.6.5.2.1.4.2.6.2.2,0,.5,0,.7-.2.2-.1.4-.3.6-.4.1-.2.3-.3.3-.5,0-.2.2-.3.2-.4,0-.1.1-.2.2-.2,0,0,0,0,.1,0,0,0,0,0,.1,0s0,.1.2.2c0,0,.1.2.2.4,0,.1.1.2.1.3,0,0,0,.2,0,.2,0,0,0,.1,0,.2,0,0,0,.1,0,.2s0,.2-.2.3c0,.1-.2.3-.4.4-.1.1-.3.3-.5.4-.2.1-.4.3-.6.4-.5.2-1,.4-1.4.4-.4,0-.9,0-1.3-.2-.4-.2-.8-.4-1.1-.8-.3-.4-.6-.8-.9-1.4-.3-.6-.5-1.2-.5-1.7,0-.5,0-1,.1-1.4.1-.4.4-.8.7-1.1.3-.3.7-.6,1.2-.8.2,0,.4-.2.6-.2.2,0,.4,0,.6-.1.2,0,.4,0,.5,0Zm-8,0c.2,0,.3,0,.4,0,.2,0,.4.3.5.6.1.4.2.6,0,.8,0,.2-.3.4-.8.5-.4.2-.7.2-.9.1-.2,0-.4-.3-.5-.6-.1-.4-.2-.6,0-.8,0-.2.3-.4.8-.5.2,0,.4-.1.5-.1Zm-68.3-.6c.5,0,.9.2,1.4.4.2,0,.4.2.5.3.2.1.3.2.4.4.1.1.2.3.3.4,0,.1.1.2.2.3,0,0,0,.1,0,.2,0,0,0,0,0,.2,0,0,0,.1,0,.2,0,0,0,.2-.1.3-.1.3-.3.4-.4.5-.1,0-.2.1-.3,0,0,0-.1-.1-.2-.2,0-.1-.1-.2-.2-.4,0-.1-.2-.3-.3-.4-.1-.1-.3-.3-.6-.4-.5-.2-.9-.2-1.3,0-.4.2-.8.7-1.1,1.4-.2.3-.3.6-.4.9,0,.3,0,.5,0,.8s.1.4.3.6c.1.2.3.3.6.4.2.1.5.2.7.2.2,0,.4,0,.6,0,.2,0,.3,0,.4,0,.1,0,.2,0,.3,0,0,0,0,0,0,0,0,0,0,0,0,.2,0,0,0,.2,0,.3,0,.1,0,.2-.2.4,0,.1-.1.2-.2.3,0,0,0,.1-.1.2,0,0,0,0-.1.1,0,0,0,0-.2,0,0,0-.2,0-.4,0-.2,0-.4,0-.6,0-.2,0-.4,0-.6-.1-.2,0-.4-.1-.7-.3-.5-.2-.9-.5-1.2-.9-.3-.3-.5-.7-.6-1.1-.1-.4-.1-.9,0-1.3,0-.5.3-1,.5-1.5.3-.6.7-1.1,1-1.5.4-.4.8-.6,1.2-.8.4-.2.9-.2,1.3-.2Zm82.3-2.8c.2,0,.4,0,.5,0,.3,0,.6.2.9.5.3.2.5.6.8,1l2.4,4c0,0,0,.1,0,.2,0,0,0,.1-.2.2,0,0-.2.2-.4.3-.2.1-.4.2-.5.2-.1,0-.2,0-.2,0,0,0-.1,0-.1-.1l-.3-.5c0,.4-.2.8-.5,1.1-.2.3-.5.6-.9.8-.3.2-.6.3-.9.4-.3,0-.6,0-.9,0-.3,0-.6-.2-.8-.3-.3-.2-.5-.4-.7-.7-.2-.3-.3-.7-.3-1,0-.3,0-.7.2-1,.2-.3.4-.7.8-1,.4-.3.8-.6,1.3-1l.6-.3-.2-.4c-.1-.2-.2-.3-.4-.5-.1-.1-.3-.2-.4-.2-.1,0-.3,0-.5,0-.2,0-.4.1-.6.3-.3.2-.5.3-.7.5-.2.2-.3.4-.5.6-.1.2-.2.3-.3.5,0,.1-.2.2-.2.3,0,0-.1,0-.2,0,0,0-.1,0-.2,0,0,0-.1-.1-.2-.2,0,0-.1-.2-.2-.3,0-.1-.1-.3-.2-.3,0,0,0-.2,0-.3,0-.1,0-.2.2-.4.1-.2.2-.4.4-.5.2-.2.4-.4.6-.6.2-.2.5-.4.7-.5.5-.3.9-.5,1.3-.6.2,0,.4,0,.6,0Zm-87.2,0c0,0,.2,0,.3,0,.1,0,.3.1.4.2.2,0,.3.2.4.3,0,0,.2.1.2.2,0,0,0,.1,0,.2,0,0,0,0,0,.1l-3.6,5.9s0,0-.1,0c0,0-.1,0-.2,0,0,0-.2,0-.3-.1-.1,0-.3-.1-.4-.2-.2,0-.3-.2-.4-.3-.1,0-.2-.1-.2-.2,0,0,0-.1,0-.2,0,0,0,0,0-.1l3.6-5.9s0,0,.1,0c0,0,.1,0,.2,0Zm-6.5-2.4c-.2,0-.4,0-.7.2-.2.1-.4.3-.6.4-.2.2-.4.4-.5.6-.2.2-.3.5-.4.7-.1.2-.2.5-.2.7,0,.2,0,.5,0,.7s.2.4.4.5c.1,0,.2.1.4.2.1,0,.3,0,.4,0,.2,0,.3,0,.5,0,.2,0,.4,0,.7-.2l1.4-1.9c0-.4,0-.8-.2-1.1,0-.3-.3-.5-.5-.7-.2-.1-.4-.2-.6-.2Zm7.9-.1c.2,0,.5,0,.9.3.4.2.6.4.6.6,0,.2,0,.5-.2.8-.2.3-.4.5-.6.6-.2,0-.5,0-.9-.3-.4-.2-.6-.4-.7-.6,0-.2,0-.5.2-.8.2-.3.4-.5.6-.6Zm92.1-2s0,0,.1,0c0,0,0,0,.1,0,0,0,0,0,.2.2,0,0,.2.2.3.4.1.2.2.3.3.4,0,.1.1.2.1.3,0,0,0,.1,0,.2,0,0,0,0,0,.1,0,0,0,0-.1,0,0,0-.1,0-.2,0,0,0-.1,0-.2,0,0,0-.1,0-.2.1,0,0-.2.1-.2.2s-.1.2-.2.4c0,.1,0,.3,0,.5,0,.2,0,.4,0,.7l2.6,3.5s0,0,0,.1c0,0,0,.1,0,.2,0,0-.1.1-.2.2,0,0-.2.2-.4.3-.2.1-.3.2-.4.3-.1,0-.2.1-.3.1,0,0-.1,0-.2,0,0,0,0,0-.1,0l-4.1-5.6s0,0,0-.1c0,0,0-.1,0-.2,0,0,0-.1.2-.2,0,0,.2-.2.3-.3.1,0,.3-.2.3-.2s.2,0,.2-.1c0,0,.1,0,.2,0s0,0,.1,0l.5.7c0-.3,0-.6,0-.8,0-.2,0-.4.1-.6,0-.2.1-.3.2-.4,0-.1.2-.2.3-.3,0,0,.1,0,.2-.1s.1,0,.2-.1c0,0,.1,0,.2,0,0,0,.1,0,.2,0Zm6.8-.2l-.6.5c-.2.2-.4.4-.6.6-.1.2-.2.4-.3.5,0,.2,0,.3,0,.5,0,.1.1.3.2.4.2.2.4.3.7.3.2,0,.5-.1.7-.3.2-.2.3-.4.4-.7,0-.3.1-.6.1-.9l-.8-.9Zm-102-.3s.1,0,.2,0c0,0,.2,0,.3.1.1,0,.2.1.4.3.2.1.3.2.4.3,0,0,.2.2.2.2,0,0,0,.1,0,.2,0,0,0,0,0,.1l-6,8.3s0,0-.1,0c0,0,0,0-.2,0,0,0-.1,0-.2-.1,0,0-.2-.1-.3-.2-.1,0-.2-.2-.3-.2s-.1-.1-.2-.2c0,0,0-.1,0-.2,0,0,0,0,0-.1l.5-.6c-.5.1-1,.1-1.4,0-.4,0-.9-.2-1.2-.5-.4-.3-.7-.7-.9-1-.2-.4-.3-.8-.2-1.2,0-.4.1-.8.3-1.3.2-.4.4-.9.7-1.3.4-.5.7-.9,1.1-1.2s.8-.5,1.2-.7c.4-.1.8-.2,1.2,0,.4,0,.8.3,1.2.5.3.2.6.5.7.8.2.3.3.7.4,1.1l2.2-3s0,0,.1,0Zm100.4-3.3c.3,0,.7,0,1,.3.3.2.6.5,1,.8l3.1,3.5c0,0,0,.1,0,.2,0,0,0,.1-.1.2,0,0-.2.2-.4.3-.2.2-.3.3-.4.3,0,0-.2,0-.2,0,0,0-.1,0-.2,0l-.4-.4c0,.4,0,.8-.3,1.2-.2.4-.4.7-.7,1-.3.2-.6.4-.9.6-.3.1-.6.2-.9.2-.3,0-.6,0-.9-.2-.3-.1-.5-.3-.8-.6-.3-.3-.4-.6-.5-.9,0-.3,0-.7,0-1s.3-.7.6-1.1c.3-.4.7-.8,1.1-1.2l.5-.4-.3-.3c-.1-.2-.3-.3-.4-.4-.1,0-.3-.1-.4-.2-.1,0-.3,0-.5,0-.2,0-.3.2-.5.4-.2.2-.4.4-.6.7-.1.2-.3.4-.4.6,0,.2-.2.4-.2.5,0,.1-.1.2-.2.3,0,0,0,0-.2,0,0,0-.1,0-.2,0,0,0-.1,0-.2-.1,0,0-.2-.1-.2-.2-.1-.1-.2-.2-.2-.3s0-.2,0-.3c0-.1,0-.3.1-.4,0-.2.2-.4.3-.6.1-.2.3-.4.5-.7.2-.2.4-.4.6-.6.4-.4.8-.6,1.2-.8.4-.2.7-.3,1-.3Zm10.2-.3c0,0-.2,0-.3,0-.2,0-.4.2-.7.4l-1,1c0,.2,0,.3,0,.4,0,.1,0,.2,0,.3,0,0,0,.2.1.2,0,0,.1.1.2.2.2.2.4.2.7.1.3-.1.6-.3.9-.7.2-.2.3-.4.4-.6,0-.2.1-.4.2-.5s0-.3,0-.4c0-.1-.1-.2-.2-.3,0,0-.2-.1-.3-.2Zm-121.1-.3c.3,0,.6.1,1,.3.3.2.7.4,1,.7.2.1.3.3.4.5.1.2.2.3.3.5,0,.1.2.3.2.4,0,.1,0,.2,0,.3,0,0,0,.1,0,.2,0,0,0,0,0,.1,0,0,0,.1-.1.2,0,0-.1.1-.2.2,0,.1-.2.2-.2.2s-.1.1-.2.1c0,0,0,0-.1,0,0,0,0,0,0,0,0,0,0,0-.1-.2,0-.1,0-.2-.2-.4,0-.1-.2-.3-.3-.5-.1-.2-.3-.3-.4-.5-.1-.1-.3-.2-.4-.3-.1,0-.2,0-.3,0-.1,0-.2,0-.3,0,0,0-.2,0-.2.2-.1.1-.2.3-.2.4,0,.1,0,.3,0,.5,0,.2.1.3.3.5.1.2.2.4.3.6,0,.2.2.4.3.6,0,.2.1.4.1.7,0,.2,0,.5-.1.7,0,.2-.2.5-.4.7-.3.3-.6.5-.9.6s-.6.2-1,.1c-.3,0-.7-.1-1-.3-.3-.2-.7-.4-1-.7-.2-.2-.4-.4-.5-.5s-.3-.4-.4-.5c0-.2-.2-.3-.2-.4,0-.1,0-.2,0-.3,0,0,0-.2,0-.3,0-.1.2-.2.3-.4.1-.1.2-.2.3-.3,0,0,.1-.1.2-.1,0,0,0,0,.1,0,0,0,0,0,.1,0,0,0,0,.1.1.2s0,.3.2.4c0,.2.2.4.3.5.1.2.3.4.5.6.1.1.3.2.4.3.1,0,.3.1.4.1.1,0,.2,0,.3,0,.1,0,.2-.1.3-.2.1-.1.2-.2.2-.4,0-.1,0-.3,0-.5,0-.2-.1-.3-.2-.5-.1-.2-.2-.4-.3-.6s-.2-.4-.3-.6c0-.2-.1-.4-.1-.7,0-.2,0-.5.1-.7,0-.2.2-.5.5-.7.2-.2.5-.4.8-.5.3-.1.6-.2.9-.2Zm116.1-3.2c-.3,0-.6.2-.8.4-.1.1-.2.3-.3.4,0,.2,0,.3,0,.4,0,.1,0,.3.1.4,0,.1.2.3.3.4.3.2.5.3.8.3.3,0,.6-.2.8-.4.1-.1.2-.3.3-.4,0-.1,0-.3,0-.4,0-.1,0-.3-.1-.4,0-.1-.2-.2-.3-.4-.3-.2-.6-.4-.9-.3Zm-119.1-.3s.1,0,.2,0c0,0,.2,0,.3.2,0,0,.2.2.3.3.1.1.2.3.3.4,0,.1.1.2.2.3,0,0,0,.1,0,.2,0,0,0,0,0,.1l-5.1,4.7s0,0-.1,0c0,0-.1,0-.2,0,0,0-.2,0-.2-.2,0,0-.2-.2-.3-.3-.1-.1-.2-.3-.3-.4,0,0-.1-.2-.2-.3,0,0,0-.1,0-.2,0,0,0,0,0-.1l5.1-4.7s0,0,.1,0Zm2.2-2c.2,0,.5.2.8.5.3.3.5.6.4.8,0,.2-.1.5-.4.7-.3.3-.5.4-.8.4s-.5-.2-.8-.5c-.3-.3-.5-.6-.5-.8,0-.2.1-.4.4-.7.3-.3.5-.4.8-.4Zm117.5-.6s0,0,.2,0c.1,0,.3.1.5.3.2.2.3.3.4.4,0,.1,0,.2,0,.3l-.5.6c.2,0,.3,0,.5,0,.2,0,.3.2.4.3.3.3.5.6.7.9.1.3.2.6.2,1,0,.3,0,.7-.2,1-.2.3-.4.7-.7,1-.1.2-.3.3-.5.4s-.3.2-.5.2c0,0,0,.2,0,.3,0,0,0,.2.2.3.1.1.2.1.4,0,.2,0,.3-.1.5-.3l1.2-1.2c.3-.3.6-.5.8-.7.3-.2.6-.3.8-.3.3,0,.5,0,.8,0,.3,0,.5.2.7.4.3.2.4.5.6.8.1.3.2.7.1,1,0,.4-.2.8-.4,1.2-.2.4-.5.9-.9,1.3-.4.4-.8.8-1.1,1-.3.2-.7.4-1,.5-.3,0-.6.1-.8,0-.3,0-.5-.2-.7-.4-.1-.1-.2-.2-.3-.4,0-.1-.2-.3-.2-.4,0-.2,0-.3,0-.5,0-.2,0-.4,0-.6-.2,0-.5.1-.7,0-.2,0-.4-.1-.6-.3-.2-.2-.4-.4-.5-.7,0-.3-.1-.6-.1-.9-.3,0-.5,0-.8-.1s-.5-.3-.8-.5c-.3-.3-.5-.6-.7-.9-.1-.3-.2-.6-.2-1,0-.3,0-.7.2-1,.1-.3.4-.7.7-1,.1-.2.3-.3.4-.4.2-.1.3-.2.5-.3l1.5-1.6s0,0,.1,0Zm-123.6-1.9s.1,0,.2,0c0,0,.1,0,.2.2,0,0,.2.2.3.3.1.1.2.2.2.3,0,0,0,.2.1.2,0,0,0,.1,0,.2s0,0,0,.1l-.7.5c.3,0,.6,0,.8,0,.2,0,.4,0,.6.1.2,0,.3.1.4.2.1,0,.2.2.3.3,0,0,0,.1.1.2,0,0,0,.1.1.2,0,0,0,.1,0,.2,0,0,0,.1,0,.2,0,0,0,0,0,.1,0,0,0,0,0,.1,0,0,0,0-.2.2,0,0-.2.2-.3.3-.1.1-.3.2-.4.3,0,0-.2.1-.2.1,0,0-.1,0-.2,0,0,0,0,0-.1,0,0,0,0,0,0-.1,0,0,0-.1,0-.2,0,0,0-.1,0-.2,0,0,0-.1-.1-.2,0,0-.2-.2-.3-.2-.1,0-.2-.1-.4-.1-.1,0-.3,0-.5,0-.2,0-.4,0-.7,0l-3.4,2.7s0,0-.1,0c0,0-.1,0-.2,0,0,0-.1-.1-.2-.2,0,0-.2-.2-.3-.4-.1-.1-.2-.3-.3-.4,0-.1-.1-.2-.1-.3,0,0,0-.1,0-.2,0,0,0,0,0-.1l5.4-4.4s0,0,.1,0Zm128.3-4.6s0,0,.1,0l5.7,3.9s0,0,0,.1c0,0,0,0,0,.2s0,.1,0,.2-.1.2-.2.3c0,.1-.2.3-.3.3,0,0-.1.1-.2.2,0,0-.1,0-.2,0,0,0,0,0-.1,0l-.7-.5c.1.6.2,1,.1,1.5,0,.4-.2.8-.4,1.2-.3.4-.6.7-.9.9-.3.2-.6.3-1,.3-.3,0-.7,0-1-.2-.3-.1-.7-.3-1.2-.6l-3.5-2.4s0,0,0-.1,0-.1,0-.2c0,0,0-.2.1-.3,0-.1.1-.2.3-.4.1-.2.2-.3.3-.4,0,0,.2-.2.2-.2,0,0,.1,0,.2,0,0,0,0,0,.1,0l3.2,2.2c.3.2.5.3.7.4.2,0,.4.1.5.1.2,0,.3,0,.5-.1.1,0,.3-.2.4-.4.1-.2.2-.5.2-.8s0-.7-.2-1.1l-3.8-2.6s0,0,0-.1,0-.1,0-.2c0,0,0-.2.1-.3,0-.1.1-.2.3-.4.1-.2.2-.3.3-.4,0,0,.2-.2.2-.2,0,0,.1,0,.2,0Zm-133.2-2.7s.1,0,.2,0c0,0,.1.1.2.2,0,.1.2.2.3.4.1.2.2.3.2.4,0,.1,0,.2.1.3,0,0,0,.1,0,.2,0,0,0,0,0,.1l-3.3,2.1c-.3.2-.5.4-.7.5-.1.1-.2.3-.3.4,0,.2,0,.3,0,.5,0,.2,0,.3.2.5.1.2.3.4.6.5.3.1.7.2,1.1.3l3.9-2.5s0,0,.1,0c0,0,.1,0,.2,0,0,0,.1.1.2.2s.2.2.3.4c.1.2.2.3.2.4,0,.1,0,.2.1.3,0,0,0,.1,0,.2,0,0,0,0,0,.1l-5.9,3.7s0,0-.1,0c0,0,0,0-.2,0,0,0-.1-.1-.2-.2,0,0-.1-.2-.2-.3,0-.1-.2-.3-.2-.4,0,0,0-.2,0-.2,0,0,0-.1,0-.2,0,0,0,0,0-.1l.7-.4c-.6-.1-1-.3-1.4-.5-.4-.2-.7-.5-.9-.9-.3-.4-.4-.8-.4-1.1,0-.4,0-.7.1-1,.1-.3.3-.6.6-.9.3-.3.6-.5,1.1-.8l3.6-2.3s0,0,.1,0Zm139.8-.8l-.3.7c-.1.3-.2.5-.3.8,0,.2,0,.4,0,.6,0,.2,0,.3.2.4,0,.1.2.2.4.3.3.1.5.2.7,0,.2,0,.4-.3.6-.6.1-.2.2-.5.2-.8,0-.3,0-.6-.2-.9l-1.1-.5Zm-2.4-2.9c.2,0,.3,0,.5,0,.4,0,.8.2,1.2.4l4.2,2.1c0,0,.1,0,.1.1,0,0,0,.2,0,.3,0,.1-.1.3-.2.5-.1.2-.2.4-.3.4s-.1.1-.2.2c0,0-.1,0-.2,0l-.5-.2c.1.4.2.8.2,1.2,0,.4-.1.8-.3,1.2-.2.3-.4.6-.6.8-.2.2-.5.4-.7.5-.3.1-.6.2-.9.1-.3,0-.6-.1-1-.3-.4-.2-.6-.4-.8-.7s-.3-.6-.3-1c0-.4,0-.8.1-1.2.1-.5.3-1,.6-1.5l.3-.6-.4-.2c-.2,0-.4-.2-.5-.2s-.3,0-.5,0c-.1,0-.3.1-.4.3-.1.1-.2.3-.4.5-.1.3-.2.6-.3.8,0,.3,0,.5,0,.7,0,.2,0,.4,0,.5,0,.2,0,.3,0,.3,0,0,0,0-.1.1,0,0-.1,0-.2,0,0,0-.2,0-.3,0,0,0-.2,0-.3-.1-.1,0-.3-.1-.3-.2,0,0-.1-.1-.2-.2,0,0,0-.2,0-.5,0-.2,0-.4,0-.7,0-.3.1-.5.2-.8,0-.3.2-.6.3-.8.2-.5.5-.9.8-1.2.3-.3.6-.5.9-.6.2,0,.3,0,.5-.1Zm-136.9-1.2s.1,0,.2.1c0,0,.1.1.2.3,0,.1.1.3.2.4s.2.3.2.4c0,.1,0,.2,0,.3,0,0,0,.1,0,.2,0,0,0,0-.1.1l-6.3,3c-.4.2-.8.3-1.2.4-.4,0-.7,0-1,0-.3,0-.6-.2-.9-.5-.3-.2-.5-.6-.7-1,0-.1-.1-.3-.2-.4,0-.1,0-.3-.1-.4,0-.1,0-.2,0-.3s0-.2,0-.2c0,0,0,0,0-.1,0,0,0,0,.1-.1,0,0,.1,0,.2-.1s.2,0,.3-.2c.2,0,.3-.1.4-.2.1,0,.2,0,.3,0,0,0,.1,0,.2,0,0,0,0,0,0,0,0,0,0,0,0,.2,0,0,0,.1,0,.2,0,0,0,.2,0,.3,0,.1,0,.2.1.4,0,.1.1.2.2.3,0,0,.2.1.3.2.1,0,.3,0,.4,0,.2,0,.4-.1.6-.2l6.3-3s0,0,.1,0Zm145.8-45.9c-.3,0-.5.1-.6.3-.1.2-.2.4-.2.7,0,.2,0,.5.2.7.1.2.3.4.6.6h1.1c0,0,0-.7,0-.7,0-.3,0-.5-.1-.7,0-.2-.1-.4-.2-.5,0-.1-.2-.2-.3-.3-.1,0-.3,0-.4,0Zm-.2-1.7c.4,0,.7,0,1,.1.3.1.5.3.7.6.2.3.3.6.5,1,.1.4.2.9.2,1.4v.6s.4,0,.4,0c.2,0,.4,0,.5,0,.1,0,.3-.1.4-.2,0,0,.2-.2.2-.4,0-.2,0-.3,0-.6,0-.3,0-.5-.2-.8,0-.2-.2-.4-.3-.6,0-.2-.2-.3-.2-.4,0-.1-.1-.2-.1-.3,0,0,0,0,0-.1,0,0,0,0,.1-.1,0,0,.1,0,.2,0,0,0,.2,0,.3,0,.1,0,.3,0,.3,0,0,0,.2,0,.2.1,0,0,.2.2.2.3,0,.2.2.3.3.6s.2.4.2.7c0,.3.1.5.1.8,0,.5,0,.9,0,1.3,0,.4-.2.6-.4.9-.2.2-.4.4-.7.5-.3.1-.7.2-1.1.2l-4.2.3c0,0-.1,0-.2,0,0,0,0-.1,0-.2,0,0,0-.2,0-.4,0-.2,0-.4,0-.5,0,0,0-.2,0-.2,0,0,0,0,.1,0h.5c-.3-.3-.5-.5-.7-.9-.2-.3-.3-.7-.3-1.1,0-.3,0-.6,0-.9,0-.3.2-.5.3-.7.2-.2.4-.4.6-.5.2-.1.5-.2.9-.2Zm3.9-5s0,0,.1,0c0,0,0,0,.1.1,0,0,0,.1,0,.2,0,0,0,.2,0,.4,0,.1,0,.3,0,.4s0,.2,0,.2c0,0,0,0,0,.1,0,0,0,0-.1,0h-.8c.3.2.5.4.6.5.2.1.3.2.4.4.1.1.2.2.2.4,0,.1,0,.2.1.4,0,0,0,.1,0,.2,0,0,0,.1,0,.2,0,0,0,.1,0,.2s0,.1,0,.1c0,0,0,0,0,0,0,0,0,0-.1,0,0,0-.1,0-.2,0,0,0-.2,0-.4,0-.2,0-.3,0-.4,0-.1,0-.2,0-.3,0,0,0-.1,0-.1,0,0,0,0,0,0-.1,0,0,0,0,0-.1,0,0,0-.1,0-.2,0,0,0-.1,0-.2,0,0,0-.1,0-.2,0,0,0-.2-.1-.3,0,0-.1-.2-.2-.3s-.2-.2-.4-.3c-.2,0-.3-.2-.6-.3l-3.8.6s0,0-.1,0c0,0,0,0-.1-.1,0,0,0-.1,0-.3,0-.1,0-.2,0-.4,0-.2,0-.3,0-.4,0-.1,0-.2,0-.3,0,0,0-.1,0-.2,0,0,0,0,.1,0l6.2-.9Zm-166.8-3.8c0,0,.2,0,.3,0l8,1.2s0,0,.1,0c0,0,0,0,0,.2,0,0,0,.2,0,.3,0,.1,0,.3,0,.4,0,.2,0,.3,0,.4,0,.1,0,.2,0,.3s0,.1-.1.1c0,0,0,0-.1,0l-7.3-1.1h0s6.9,3.7,6.9,3.7c0,0,.1,0,.1.1,0,0,0,.1,0,.2s0,.2,0,.3c0,.1,0,.2,0,.4,0,.2,0,.3,0,.4,0,.1,0,.2,0,.3,0,0,0,.1-.1.2,0,0,0,0-.1,0l-7.6,1.4h0s7.3,1.1,7.3,1.1c0,0,0,0,.1,0,0,0,0,0,0,.2,0,0,0,.2,0,.3,0,.1,0,.2,0,.4,0,.2,0,.3,0,.4,0,.1,0,.2,0,.3,0,0,0,.1-.1.1,0,0,0,0-.1,0l-8-1.2c-.2,0-.4-.1-.5-.3-.1-.1-.1-.3-.1-.5l.2-1.2c0-.2,0-.4.1-.5,0-.1.1-.3.2-.4,0,0,.2-.2.4-.2.1,0,.3,0,.5-.1l5.6-1.1h0s-5-2.8-5-2.8c-.2,0-.3-.2-.5-.3-.1,0-.2-.2-.3-.3,0-.1-.1-.2-.1-.4,0-.1,0-.3,0-.5l.2-1.2c0-.1,0-.2,0-.3s.1-.2.2-.2c0,0,.2,0,.2,0Zm163.8-1.6c-.2,0-.4,0-.6,0l.6,2.5c.5,0,.8-.3,1.1-.5.2-.3.3-.6.2-1,0-.2-.1-.4-.3-.5-.1-.1-.3-.2-.4-.3-.2,0-.3-.1-.5-.1Zm-.3-1.6c.5,0,.9.2,1.2.4.4.2.7.5.9.8.2.3.4.8.5,1.2.1.5.1,1,0,1.3,0,.4-.2.7-.4,1-.2.3-.5.5-.8.7-.3.2-.7.3-1.1.4h-.3c-.2.1-.4.1-.5,0-.1,0-.2-.2-.2-.3l-.9-3.7c-.3,0-.5.1-.7.3-.2.1-.4.2-.5.4-.1.2-.2.4-.2.6,0,.2,0,.5,0,.8,0,.3.2.6.2.8,0,.2.2.4.3.6,0,.2.2.3.2.4,0,0,.1.2.1.2,0,0,0,0,0,.1,0,0,0,0,0,0,0,0,0,0-.2,0,0,0-.2,0-.3,0,0,0-.2,0-.3,0,0,0-.1,0-.2,0,0,0,0,0-.1,0,0,0,0,0-.1,0,0,0-.1,0-.2-.2,0-.1-.2-.3-.3-.5,0-.2-.2-.4-.3-.7,0-.3-.2-.5-.3-.8-.1-.5-.2-1-.1-1.5,0-.4.2-.8.4-1.2.2-.3.5-.6.9-.8.4-.2.9-.4,1.4-.5.5-.1,1-.2,1.5-.1Zm-160.3-.4l6,1.6s0,0,.1,0c0,0,0,0,0,.2,0,0,0,.2,0,.3,0,.1,0,.2,0,.4,0,.2,0,.3-.1.4,0,.1,0,.2-.1.2s0,0-.1.1c0,0,0,0-.1,0l-6-1.6s0,0-.1,0c0,0,0,0,0-.2,0,0,0-.2,0-.3,0-.1,0-.2,0-.4,0-.2,0-.3.1-.4s0-.2.1-.2c0,0,0,0,.1-.1,0,0,0,0,.1,0Zm-2.5-.7c.1,0,.3,0,.4,0,.3,0,.6.2.7.4,0,.2,0,.4,0,.8,0,.4-.2.6-.4.7-.2,0-.4.1-.7,0-.3,0-.6-.2-.7-.4,0-.2,0-.4,0-.8,0-.4.2-.6.4-.7,0,0,.2,0,.3,0Zm163.3-2.7s0,0,.1,0c0,0,0,0,.1.1,0,0,0,.1.1.2,0,.1,0,.2.1.4,0,.2,0,.3.1.4,0,.1,0,.2,0,.3,0,0,0,.1,0,.2,0,0,0,0-.1,0l-5.9,1.8s0,0-.1,0,0,0-.1-.1c0,0,0-.1-.1-.2,0-.1,0-.2-.1-.4,0-.2,0-.3-.1-.4,0-.1,0-.2,0-.3,0,0,0-.1,0-.2,0,0,0,0,.1,0l5.9-1.8Zm2.4-.8c.1,0,.2,0,.3,0,.2,0,.3.3.4.7.1.4.1.6,0,.8,0,.2-.3.3-.6.4-.3.1-.6.1-.8,0-.2,0-.3-.3-.4-.7-.1-.4-.1-.6,0-.8,0-.2.3-.3.6-.4.2,0,.3,0,.4,0Zm-159.7-2.8c.3,0,.7.1,1.1.3l3.6,1.2s0,0,.1,0c0,0,0,0,0,.2,0,0,0,.2,0,.3,0,.1,0,.2-.1.4,0,.2-.1.3-.2.4,0,.1,0,.2-.1.2,0,0,0,0-.1.1s0,0-.1,0l-3.4-1.1c-.3,0-.5-.2-.7-.2-.2,0-.3,0-.5,0-.1,0-.3.1-.4.2-.1.1-.2.2-.2.4,0,.2,0,.4,0,.7,0,.3.2.6.4.9l3.9,1.3s0,0,.1,0c0,0,0,0,0,.2,0,0,0,.2,0,.3,0,.1,0,.2-.1.4,0,.2-.1.3-.2.4,0,.1,0,.2-.1.2,0,0,0,0-.1.1,0,0,0,0-.1,0l-5.9-2s0,0-.1,0c0,0,0,0,0-.1,0,0,0-.1,0-.2,0,0,0-.2,0-.3,0-.1,0-.3.1-.3,0,0,0-.2.1-.2,0,0,0,0,.1,0,0,0,0,0,.1,0l.7.2c-.2-.4-.4-.9-.5-1.3,0-.4,0-.8,0-1.1.1-.4.3-.7.5-.9.2-.2.5-.4.8-.5.3,0,.6-.1.9,0Zm153.6-1.8c.5,0,.9,0,1.3.2.4.2.7.4,1,.7.3.3.5.7.6,1.1,0,.2.1.3.1.5,0,.2,0,.3,0,.5,0,.2,0,.3,0,.5,0,.1,0,.2,0,.3,0,0,0,.1,0,.1,0,0,0,0-.1,0,0,0-.1,0-.2,0,0,0-.2,0-.3.1-.3,0-.4.1-.6.1-.1,0-.2,0-.2-.1,0,0,0-.2,0-.3,0-.1,0-.2,0-.4s0-.3,0-.5c0-.2,0-.4-.1-.6-.2-.4-.4-.7-.9-.8-.4-.1-.9,0-1.6.2-.3.1-.6.2-.8.4-.2.1-.4.3-.5.5-.1.2-.2.4-.2.6,0,.2,0,.4,0,.6,0,.2.2.4.3.5.1.1.3.3.4.3.1,0,.2.2.3.2,0,0,.2.1.2.2,0,0,0,0,0,.1,0,0,0,0,0,.1,0,0-.1,0-.2.1,0,0-.2,0-.3.1-.1,0-.2,0-.3,0,0,0-.1,0-.2,0,0,0-.1,0-.1,0,0,0,0,0-.2,0,0,0-.2,0-.3-.2-.1,0-.2-.2-.4-.4-.1-.1-.2-.3-.3-.5-.1-.2-.2-.4-.3-.6-.2-.4-.2-.9-.2-1.3,0-.4.1-.8.3-1.1.2-.3.4-.6.8-.9.3-.3.8-.5,1.3-.7.6-.2,1.1-.3,1.6-.3Zm-153.4-2.2s0,0,.1,0l5.7,2.4s0,0,0,0c0,0,0,0,0,.2,0,0,0,.2,0,.3,0,.1,0,.2-.2.4,0,.2-.1.3-.2.4,0,0-.1.2-.2.2,0,0,0,0-.1,0,0,0,0,0-.1,0l-5.7-2.4s0,0,0,0c0,0,0,0,0-.2,0,0,0-.2,0-.3,0-.1,0-.2.1-.4,0-.2.1-.3.2-.4,0,0,.1-.2.2-.2,0,0,0,0,.1,0Zm-2.2-1.1c.1,0,.3,0,.4.1.3.1.5.3.6.5,0,.2,0,.5-.1.8-.2.4-.3.6-.5.7-.2,0-.4,0-.7,0-.3-.1-.5-.3-.6-.5,0-.2,0-.5.1-.8.2-.4.3-.6.5-.7,0,0,.2,0,.3,0Zm5-4.2s0,0,.1,0c0,0,.1,0,.2,0,0,0,.1,0,.2.1.1,0,.2.1.3.1,0,0,.1,0,.2.1,0,0,0,0,0,.1,0,0,0,0,0,0,0,0,0,0-.2.1,0,0-.2.1-.3.2-.1,0-.2.2-.3.3-.1.1-.2.3-.3.5,0,.1-.1.3-.1.4,0,.1,0,.2,0,.3,0,0,0,.2.1.2,0,0,.1.1.2.2.1,0,.3,0,.4,0,.1,0,.3-.1.4-.2s.3-.2.4-.3c.1-.1.3-.3.4-.4.2-.1.3-.3.5-.4.2-.1.4-.2.6-.3.2,0,.4,0,.6,0,.2,0,.5,0,.7.2.3.2.6.4.8.6.2.2.3.5.4.8,0,.3,0,.6,0,.9,0,.3-.2.7-.4,1-.1.2-.2.4-.3.6-.1.2-.2.3-.4.4-.1.1-.2.2-.3.3,0,0-.2.1-.2.1,0,0-.2,0-.3,0-.1,0-.3,0-.4-.2-.1,0-.2-.1-.3-.2,0,0-.1,0-.2-.1,0,0,0,0,0-.1,0,0,0,0,0-.1,0,0,0-.1.2-.2,0,0,.2-.1.3-.2.1-.1.3-.2.4-.4.1-.1.3-.3.4-.6,0-.1.1-.3.1-.4,0-.1,0-.2,0-.3,0-.1,0-.2-.1-.3,0,0-.1-.2-.3-.2-.1,0-.3,0-.4,0-.1,0-.3,0-.4.2s-.3.2-.4.3c-.1.1-.3.3-.4.4-.2.1-.3.3-.5.4-.2.1-.4.2-.6.3-.2,0-.4,0-.6,0-.2,0-.5,0-.7-.2-.3-.1-.5-.3-.7-.5-.2-.2-.3-.5-.3-.7,0-.3,0-.6,0-.9,0-.3.2-.7.3-1,0-.2.2-.3.3-.5.1-.2.2-.3.3-.4.1-.1.2-.2.3-.3,0,0,.2-.1.2-.1,0,0,0,0,.1,0Zm148.9-.2s0,0,.1,0c0,0,0,.1.1.2,0,0,.1.2.2.3,0,.1.1.2.1.3,0,0,0,.2,0,.2s0,.1,0,.1c0,0,0,0,0,0l-.6.3c.5.1.9.3,1.2.6.3.2.6.5.7.9.2.4.3.7.3,1.1,0,.3,0,.6-.2.9-.1.3-.3.5-.6.7-.3.2-.6.4-1,.6l-3.5,1.7s0,0-.1,0c0,0,0,0-.1,0,0,0-.1-.1-.2-.2,0,0-.1-.2-.2-.4,0-.2-.1-.3-.2-.4,0-.1,0-.2,0-.3,0,0,0-.1,0-.2,0,0,0,0,0,0l3.2-1.5c.3-.1.5-.3.6-.4.1-.1.2-.2.3-.4,0-.1.1-.3.1-.4,0-.1,0-.3-.1-.5,0-.2-.3-.4-.5-.5-.2-.1-.6-.2-1-.3l-3.7,1.8s0,0-.1,0c0,0,0,0-.1,0,0,0-.1-.1-.2-.2,0,0-.1-.2-.2-.4,0-.2-.1-.3-.2-.4s0-.2,0-.3c0,0,0-.1,0-.2,0,0,0,0,0,0l5.6-2.7s0,0,.1,0Zm-6.7-3c-.1,0-.3,0-.4.1-.2.1-.4.3-.4.5,0,.2,0,.5.2.7.1.2.3.4.5.5.2.1.5.2.8.3l.9-.5-.3-.6c-.1-.2-.3-.4-.4-.6-.1-.1-.3-.3-.4-.3-.1,0-.3,0-.4,0Zm-139.6-1.6c0,0,.1,0,.2,0,0,0,.2,0,.3.2.2.1.4.2.4.3,0,0,0,.2,0,.3l-.7,1.2,2.5,1.5c.3.2.5.3.7.2.2,0,.4-.1.5-.4,0,0,0-.2.1-.2,0,0,0-.1,0-.2,0,0,0-.1,0-.2,0,0,0,0,0-.1,0,0,0,0,0,0,0,0,0,0,.1,0,0,0,.1,0,.2,0,0,0,.2,0,.3.1.2.1.3.2.4.3,0,0,.1.1.1.2,0,0,0,.1,0,.2,0,0,0,.2,0,.3,0,.1,0,.2-.1.3s-.1.2-.2.3c-.2.3-.4.5-.6.7-.2.2-.4.3-.7.3-.2,0-.5,0-.8,0-.3,0-.6-.2-.9-.4l-2.8-1.6-.4.6c0,0-.1.1-.2,0-.1,0-.3,0-.5-.2-.1,0-.2-.1-.3-.2,0,0-.1-.1-.2-.2,0,0,0,0,0-.1,0,0,0,0,0-.1l.4-.6-1.2-.7s0,0,0,0c0,0,0,0,0-.2,0,0,0-.2,0-.3,0-.1.1-.2.2-.4,0-.1.2-.3.2-.4,0,0,.1-.2.2-.2,0,0,.1,0,.2,0,0,0,0,0,.1,0l1.2.7.7-1.2s0,0,0,0c0,0,0,0,.1,0Zm142.2-1.5c0,0,.2,0,.4.2.2,0,.3.2.5.4.2.2.3.3.5.5.2.2.3.4.5.6.3.4.4.8.5,1.1,0,.3.1.7,0,1,0,.3-.2.6-.4.8-.2.2-.5.5-.9.7l-3.6,2.2c0,0-.1,0-.2,0,0,0-.1,0-.2-.1,0,0-.1-.2-.3-.4-.1-.2-.2-.3-.2-.4,0,0,0-.2,0-.2,0,0,0,0,.1-.1l.4-.3c-.4,0-.7-.2-1-.4-.3-.2-.6-.5-.8-.8-.2-.3-.3-.6-.4-.8,0-.3,0-.5,0-.8,0-.3.1-.5.3-.7.2-.2.4-.4.7-.6.3-.2.6-.3.9-.3.3,0,.6,0,.9.2.3.1.6.4.9.7.3.3.6.7.9,1.2l.3.5.3-.2c.2-.1.3-.2.4-.3.1-.1.2-.2.2-.4,0-.1,0-.3,0-.4,0-.2-.1-.3-.2-.5-.2-.2-.3-.5-.5-.6s-.3-.3-.5-.4c-.2-.1-.3-.2-.4-.3-.1,0-.2-.1-.2-.2,0,0,0,0,0-.1,0,0,0-.1,0-.2,0,0,0-.1.2-.2,0,0,.1-.1.2-.2.1,0,.2-.1.3-.1,0,0,.2,0,.3,0Zm-138.2-2.1c-.4,0-.7.2-.9.6-.1.2-.2.4-.2.5,0,.2,0,.4,0,.5,0,.2.1.3.3.5.1.2.3.3.5.4l1.5-2.2c-.4-.3-.8-.4-1.1-.4Zm.6-1.5c.2,0,.4,0,.6.1.4.1.7.3,1.1.5l.2.2c.2.1.3.2.3.4,0,.1,0,.3,0,.4l-2.2,3.1c.2.1.4.3.6.3.2,0,.4,0,.6,0,.2,0,.4-.1.6-.2.2-.1.4-.3.5-.6.2-.3.3-.5.4-.7,0-.2.2-.4.2-.6,0-.2,0-.3.1-.4,0-.1,0-.2,0-.3,0,0,0,0,0,0,0,0,0,0,.1,0,0,0,.1,0,.2,0,0,0,.1,0,.2.2,0,0,.2.1.2.2,0,0,.1,0,.1.1,0,0,0,0,0,.1,0,0,0,0,0,.1,0,0,0,.1,0,.3,0,.1,0,.3-.2.5,0,.2-.2.4-.3.7-.1.2-.3.5-.4.7-.3.5-.6.8-1,1.1-.4.3-.7.4-1.1.5-.4,0-.8,0-1.2,0-.4-.1-.9-.4-1.4-.7-.5-.3-.8-.7-1.1-1-.3-.4-.5-.8-.6-1.2,0-.4-.1-.8,0-1.2,0-.4.3-.8.6-1.2.3-.4.6-.7.9-1,.3-.2.7-.3,1-.4.2,0,.4,0,.5,0Zm133.1-3.2s0,0,.1,0c0,0,.1,0,.2.2,0,0,.1.2.2.3,0,.1.2.2.2.3,0,0,0,.2,0,.2,0,0,0,.1,0,.1,0,0,0,0,0,.1l-.6.4c.5,0,.9.2,1.3.3.4.2.7.4.9.7.3.3.4.7.5,1,0,.3,0,.6,0,.9,0,.3-.2.6-.4.8-.2.3-.5.5-.9.8l-3.1,2.3s0,0-.1,0c0,0,0,0-.2,0,0,0-.1,0-.2-.2,0,0-.2-.2-.3-.3-.1-.1-.2-.3-.2-.4,0,0,0-.2-.1-.2,0,0,0-.1,0-.2,0,0,0,0,0-.1l2.9-2.1c.2-.2.4-.3.5-.5.1-.1.2-.3.2-.4,0-.1,0-.3,0-.4,0-.1,0-.3-.2-.4-.1-.2-.3-.3-.6-.4-.3,0-.6-.1-1-.1l-3.3,2.5s0,0-.1,0c0,0,0,0-.2,0,0,0-.1-.1-.2-.2,0,0-.2-.2-.3-.3s-.2-.3-.2-.4c0,0,0-.2-.1-.2,0,0,0-.1,0-.2,0,0,0,0,0-.1l5-3.7s0,0,.1,0Zm-130.3-2.1s0,0,0,0c0,0,0,0,.1,0,0,0,.1,0,.2.1,0,0,.2.1.3.2s.2.2.3.3c0,0,.1.1.2.2,0,0,0,0,0,.1,0,0,0,0,0,.1,0,0,0,0,0,0,0,0,0,0-.1,0,0,0-.1,0-.2.1s-.1,0-.2.2c0,0-.1.2-.1.3,0,.1,0,.2,0,.4,0,.1,0,.3,0,.5,0,.2,0,.4.2.6l3,2.4s0,0,0,.1c0,0,0,0,0,.2,0,0,0,.1-.1.2,0,0-.1.2-.3.3-.1.1-.2.2-.3.3,0,0-.1.1-.2.2,0,0-.1,0-.2,0,0,0,0,0-.1,0l-4.8-3.9s0,0,0-.1c0,0,0,0,0-.2,0,0,0-.1.1-.2,0,0,.1-.2.2-.3,0-.1.2-.2.2-.3,0,0,.1-.1.2-.1,0,0,0,0,.1,0,0,0,0,0,.1,0l.6.5c0-.3-.1-.5-.2-.7,0-.2,0-.4,0-.5,0-.2,0-.3.1-.4,0-.1.1-.2.2-.3,0,0,0,0,.1-.1,0,0,.1,0,.2-.1,0,0,.1,0,.2-.1,0,0,0,0,.1,0Zm127.8-.7s0,0,.2,0c0,0,.1,0,.2.2,0,0,.2.2.3.3.1.1.2.2.3.3,0,0,.1.2.1.2,0,0,0,.1,0,.2,0,0,0,0,0,.1l-4.7,4s0,0-.1,0c0,0,0,0-.2,0,0,0-.1,0-.2-.2,0,0-.2-.2-.3-.3-.1-.1-.2-.2-.3-.3s-.1-.2-.1-.2c0,0,0-.1,0-.2,0,0,0,0,0-.1l4.7-4s0,0,.1,0Zm-125.6-1.6s0,0,.1,0l4.6,4.2s0,0,0,.1c0,0,0,0,0,.2,0,0,0,.1-.1.2,0,0-.2.2-.3.3-.1.1-.2.2-.3.3,0,0-.2.1-.2.2,0,0-.1,0-.2,0,0,0,0,0-.1,0l-4.6-4.2s0,0,0-.1c0,0,0,0,0-.2,0,0,0-.1.1-.2s.2-.2.3-.3c.1-.1.2-.2.3-.3,0,0,.2-.1.2-.2,0,0,.1,0,.2,0Zm127.7-.2c.2,0,.4.2.7.5.3.3.4.5.4.7,0,.2-.1.4-.4.6-.3.2-.5.3-.7.3-.2,0-.4-.2-.7-.5-.3-.3-.4-.5-.4-.7,0-.2.1-.4.4-.6.3-.2.5-.3.7-.3Zm-129.7-1.6c.2,0,.4,0,.7.3.3.2.4.5.4.6,0,.2-.1.4-.4.7-.3.3-.5.4-.7.5-.2,0-.4,0-.7-.3-.3-.2-.4-.5-.4-.6,0-.2.1-.4.4-.7.3-.3.5-.4.7-.5Zm7.3-1.4c-.1,0-.2,0-.3,0-.2,0-.4.2-.6.4-.2.2-.3.4-.4.6,0,.2,0,.4,0,.6,0,.2.1.4.3.7.1.2.3.5.5.7.2.2.4.4.6.6.2.2.4.3.6.3.2,0,.4,0,.6,0,.2,0,.4-.2.6-.4.2-.2.3-.4.4-.6,0-.2,0-.4,0-.6,0-.2-.1-.4-.3-.7-.1-.2-.3-.5-.5-.7-.2-.2-.4-.4-.6-.6-.2-.2-.4-.3-.6-.3-.1,0-.2,0-.3,0Zm117.5-1.6c.1,0,.3,0,.4.2l3,3s0,0,0,.1c0,0,0,0,0,.1,0,0,0,.1-.1.2,0,0-.1.2-.2.3s-.2.2-.3.2c0,0-.1,0-.2.1,0,0-.1,0-.2,0,0,0,0,0-.1,0l-2.1-2.1-1.7,1.7,1.9,2s0,0,0,.1c0,0,0,0,0,.1,0,0,0,.1-.1.2,0,0-.1.2-.2.3,0,0-.2.2-.3.2,0,0-.1,0-.2.1,0,0-.1,0-.2,0,0,0,0,0-.1,0l-1.9-2-2.4,2.3s0,0-.1,0c0,0-.1,0-.2,0,0,0-.1,0-.2-.2,0,0-.2-.2-.3-.3-.1-.1-.2-.2-.3-.3,0,0-.1-.2-.2-.2s0-.1,0-.2c0,0,0,0,0-.1l5.9-5.7c.1-.1.3-.2.4-.2Zm-116.9,0c.4,0,.8.1,1.2.4.4.2.8.5,1.2.9.4.4.7.8.9,1.2.2.4.3.8.3,1.3s0,.8-.3,1.3c-.2.4-.5.8-.9,1.2-.4.4-.8.7-1.2.8-.4.2-.8.2-1.2.2s-.8-.1-1.2-.4c-.4-.2-.8-.5-1.2-.9-.4-.4-.7-.8-.9-1.2-.2-.4-.3-.8-.3-1.3,0-.4,0-.8.3-1.3.2-.4.5-.8.9-1.2.4-.4.8-.7,1.2-.8.4-.2.8-.2,1.2-.2Zm7.9-5.2c-.3,0-.5,0-.7.2-.2.1-.3.3-.4.5,0,.2,0,.4,0,.6,0,.2,0,.4.2.6,0,.2.2.4.4.6.2.2.3.4.5.6.2.2.4.3.6.4.2.1.4.2.6.2.2,0,.4,0,.6-.2,0,0,.2-.2.3-.2,0,0,.1-.2.2-.3,0-.1,0-.3.1-.5,0-.2,0-.4,0-.6l-1.2-1.7c-.4-.1-.7-.2-1-.2Zm95.6-2.7s0,0,.2,0c0,0,.1,0,.2,0,0,0,.2.1.3.2.1,0,.2.2.3.2,0,0,.1.1.2.2,0,0,0,0,0,.1,0,0,0,0,0,.1l-.4.6c.5,0,.9-.1,1.3,0,.4,0,.8.2,1.1.4.3.2.6.5.7.8.2.3.2.6.2.9,0,.3,0,.6-.2.9-.1.3-.3.6-.6,1l-2.3,3.1s0,0-.1,0c0,0,0,0-.2,0,0,0-.1,0-.2-.1,0,0-.2-.1-.4-.2-.1-.1-.3-.2-.3-.3,0,0-.1-.1-.2-.2,0,0,0-.1,0-.2,0,0,0,0,0-.1l2.1-2.9c.2-.2.3-.4.4-.6,0-.2,0-.3.1-.5,0-.1,0-.3,0-.4,0-.1-.2-.2-.3-.4-.2-.1-.4-.2-.7-.2-.3,0-.6,0-1,.2l-2.4,3.3s0,0-.1,0c0,0,0,0-.2,0,0,0-.2,0-.2-.1,0,0-.2-.1-.4-.2-.1-.1-.3-.2-.3-.3,0,0-.1-.1-.2-.2,0,0,0-.1,0-.2,0,0,0,0,0-.1l3.6-5s0,0,0,0Zm-89.2-1.9c-.2,0-.4,0-.6.2-.2.1-.3.2-.4.4,0,.2-.2.3-.2.5,0,.2,0,.4,0,.6,0,.2.1.4.2.6l2.3-1.3c-.2-.4-.5-.7-.8-.8-.2,0-.3,0-.5,0Zm83.5,0c-.2,0-.4,0-.6.1-.2,0-.4.2-.6.4-.2.2-.4.4-.5.7-.2.3-.3.5-.4.8,0,.2-.1.5-.1.7,0,.2,0,.4.2.6.1.2.3.4.5.5.2.1.5.2.7.2.2,0,.4,0,.6-.1.2,0,.4-.2.6-.4.2-.2.4-.4.5-.7.2-.3.3-.5.4-.8,0-.2.1-.5.1-.7,0-.2,0-.4-.2-.6-.1-.2-.3-.4-.5-.5-.2-.1-.4-.2-.7-.2Zm-90.6-.3s0,0,.1,0l5.4,7.4s0,0,0,.1c0,0,0,0,0,.1,0,0,0,.1-.2.2,0,0-.2.1-.3.2-.1,0-.2.2-.3.2,0,0-.2,0-.2,0,0,0-.1,0-.2,0,0,0,0,0-.1,0l-.4-.6c0,.5-.2.9-.3,1.2-.2.4-.4.7-.8.9-.4.3-.8.4-1.1.5-.4,0-.7,0-1.1-.1s-.7-.3-1-.6c-.3-.3-.6-.6-.9-1-.3-.4-.6-.9-.7-1.3-.2-.4-.2-.8-.2-1.2,0-.4,0-.7.3-1.1.2-.3.4-.6.8-.9.3-.2.6-.3.9-.4.3,0,.7,0,1.1,0l-2-2.7s0,0,0-.1c0,0,0,0,0-.2,0,0,.1-.1.2-.2,0,0,.2-.2.3-.3.1-.1.3-.2.4-.2,0,0,.2,0,.2-.1,0,0,.1,0,.2,0Zm7.7-1c.2,0,.4,0,.5.1.3.1.7.3.9.6.3.3.5.6.8,1v.2c.3.2.3.3.3.5,0,.1-.1.2-.3.3l-3.3,1.9c.1.2.3.4.4.6.2.2.3.3.5.3.2,0,.4,0,.6,0,.2,0,.5-.1.7-.3.3-.2.5-.3.7-.5.2-.2.3-.3.4-.4.1-.1.2-.2.3-.3,0,0,.1-.2.2-.2,0,0,0,0,.1,0,0,0,0,0,.1,0,0,0,0,0,.1.1,0,0,0,.1.2.2,0,0,0,.2.1.2,0,0,0,.1,0,.2,0,0,0,0,0,.1,0,0,0,0,0,.1,0,0,0,.1-.1.2,0,.1-.2.3-.4.4-.2.2-.3.3-.5.5-.2.2-.5.3-.7.5-.5.3-.9.5-1.4.6-.4,0-.8,0-1.2,0-.4-.1-.7-.3-1.1-.6-.3-.3-.7-.7-1-1.2-.3-.5-.5-.9-.6-1.4-.1-.5-.1-.9,0-1.3,0-.4.2-.8.5-1.1.3-.3.6-.6,1-.9.4-.3.9-.4,1.3-.5.2,0,.4,0,.6,0Zm82.2-.2c.2,0,.4,0,.7,0,.5,0,.9.2,1.4.5.5.3.9.6,1.1.9.3.3.5.7.5,1.1,0,.4,0,.8,0,1.2-.1.4-.3.9-.6,1.4-.3.5-.6.8-.9,1.1-.3.3-.7.5-1.1.7-.4.1-.8.2-1.3,0-.5,0-.9-.2-1.4-.5-.5-.3-.9-.6-1.1-.9-.3-.3-.5-.7-.5-1.1,0-.4,0-.8,0-1.2.1-.4.3-.9.6-1.4.3-.5.6-.8.9-1.1s.7-.5,1.1-.7c.2,0,.4-.1.6-.1Zm3.8-1.6c0,0,.1,0,.2,0,0,0,.2,0,.3,0,0,0,.2.1.3.2.2.1.3.2.4.3,0,0,.2.1.2.2,0,0,0,.1,0,.1,0,0,0,0-.1,0l-2,.7c0,0-.1,0-.2,0,0,0-.1,0-.2,0s-.1,0-.2,0c0,0-.2,0-.3-.2-.1,0-.2-.2-.3-.2,0,0-.1-.1-.1-.2,0,0,0,0,0-.1,0,0,0,0,.1-.1l1.7-.9c0,0,.1,0,.2,0Zm-7.7-.7c0,0,.2,0,.3,0,.1,0,.2,0,.4.2.2,0,.3.1.4.2,0,0,.2.1.2.2s0,.1,0,.1c0,0,0,0,0,.1l-2.8,5.5s0,0,0,0c0,0,0,0-.2,0,0,0-.2,0-.3,0-.1,0-.2,0-.4-.2-.2,0-.3-.1-.4-.2,0,0-.2-.1-.2-.2,0,0,0,0,0-.1,0,0,0,0,0-.1l2.8-5.5s0,0,0,0,0,0,.2,0Zm-12-.7c-.2,0-.4,0-.5,0-.1,0-.3.1-.4.2,0,0-.2.2-.2.4,0,.2,0,.5,0,.7.1.2.3.3.6.4.2,0,.5,0,.7,0,.2,0,.5-.2.8-.3l.3-1-.6-.2c-.3,0-.5-.1-.7-.2Zm7.5-1.3c.4,0,.8.1,1.2.3.2,0,.3.2.5.3.2,0,.3.2.4.3.1.1.2.2.3.3,0,.1.1.2.2.3,0,0,0,.1,0,.2,0,0,0,0,0,.1,0,0,0,.1,0,.2,0,0,0,.2-.1.3-.1.2-.2.4-.3.5,0,0-.2.1-.2,0,0,0-.1,0-.2-.2,0,0-.1-.2-.2-.3,0-.1-.2-.2-.3-.4-.1-.1-.3-.2-.5-.3-.4-.2-.8-.2-1.2,0-.4.2-.7.7-.9,1.3-.1.3-.2.6-.3.8,0,.3,0,.5,0,.7s.1.4.3.5c.1.1.3.3.5.4.2,0,.4.1.6.1.2,0,.4,0,.5,0,.2,0,.3,0,.4,0s.2,0,.2,0c0,0,0,0,0,0,0,0,0,0,0,.1,0,0,0,.1,0,.2,0,0,0,.2-.1.4,0,.1,0,.2-.1.3,0,0,0,.1-.1.2,0,0,0,0,0,.1s0,0-.2,0c0,0-.2,0-.3,0s-.3,0-.5,0c-.2,0-.4,0-.6,0-.2,0-.4-.1-.6-.2-.4-.2-.8-.4-1.1-.7-.3-.3-.5-.6-.6-1s-.2-.8-.1-1.2c0-.4.2-.9.4-1.4.2-.6.5-1,.8-1.4.3-.4.7-.6,1-.8.4-.2.8-.2,1.2-.2Zm5.9-.4c.1,0,.3,0,.5.2.4.2.6.3.6.5,0,.2,0,.4-.1.7-.2.3-.3.5-.5.6-.2,0-.5,0-.8-.2-.4-.2-.6-.3-.6-.5,0-.2,0-.4.1-.7.2-.3.3-.5.5-.6,0,0,.2,0,.3,0Zm-71.3-.2h0s.3,4,.3,4l2.4-1-2.7-3Zm9-1.1c-.1,0-.3,0-.4,0-.2,0-.4.2-.5.3-.1.2-.2.3-.3.5,0,.2,0,.4,0,.7,0,.2,0,.5.1.7,0,.2.2.5.3.7.1.2.2.4.4.6.1.2.3.3.5.3.2,0,.4,0,.6,0,.1,0,.2,0,.3-.2,0,0,.2-.2.3-.3,0-.1.2-.2.3-.4,0-.2.2-.3.3-.6l-.6-2c-.3-.2-.6-.4-.9-.5-.1,0-.3,0-.4,0Zm-8.7-.9c0,0,.2,0,.2,0,0,0,.1,0,.2.2l5.6,6.3c.1.1.2.2.2.3,0,0,0,.2,0,.2,0,0-.1.1-.2.2-.1,0-.3.1-.5.2-.2,0-.4.2-.5.2-.1,0-.2,0-.3,0,0,0-.1,0-.2,0s0,0-.1-.1l-1.3-1.4-3.1,1.3v1.8c.2,0,.2.1.1.2,0,0,0,.1,0,.2,0,0-.1.1-.2.2-.1,0-.3.1-.4.2-.2,0-.4.1-.5.2-.1,0-.2,0-.3,0,0,0-.1,0-.1-.2,0,0,0-.2,0-.4l-.5-8.4c0,0,0-.2,0-.2,0,0,0-.1.1-.2,0,0,.2-.1.3-.2.1,0,.3-.1.5-.2.3-.1.5-.2.6-.2.2,0,.3,0,.4,0Zm57.6-.1c.2,0,.5,0,.7,0,.3,0,.5.1.8.2.5.2.8.3,1.1.5.3.2.5.4.7.7.2.3.2.5.2.9,0,.3,0,.7-.2,1.1l-1.3,4c0,0,0,.1-.1.1,0,0-.1,0-.2,0-.1,0-.2,0-.4-.1-.2,0-.3-.1-.4-.2,0,0-.1,0-.2-.1,0,0,0-.1,0-.2l.2-.5c-.3.2-.7.3-1,.3-.4,0-.7,0-1.1-.1-.3-.1-.6-.2-.8-.4-.2-.2-.4-.4-.6-.6-.1-.2-.2-.5-.3-.7,0-.3,0-.6.1-.9.1-.3.3-.6.5-.8.2-.2.5-.4.8-.4.3,0,.7,0,1.1,0,.4,0,.9.2,1.4.3l.6.2v-.4c.2-.2.2-.4.2-.5,0-.2,0-.3,0-.4,0-.1-.1-.2-.3-.3-.1,0-.3-.2-.5-.2-.3,0-.5-.1-.8-.2-.2,0-.5,0-.6,0-.2,0-.4,0-.5,0-.1,0-.2,0-.3,0,0,0,0,0-.1,0,0,0,0,0,0-.2,0,0,0-.1,0-.2,0,0,0-.2,0-.3,0-.1,0-.2.1-.3,0,0,.1-.1.2-.2,0,0,.2,0,.4-.1.2,0,.4,0,.6,0Zm-5.8-1.6c0,0,.1,0,.2,0,0,0,.2,0,.4,0,.1,0,.3,0,.4.1,0,0,.2,0,.2.1,0,0,0,0,0,.1,0,0,0,0,0,.1l-.2.7c.2-.2.4-.3.6-.4.2-.1.3-.2.5-.2.1,0,.3,0,.4,0,.1,0,.3,0,.4,0,0,0,.1,0,.2,0,0,0,.1,0,.2,0s.1,0,.2.1c0,0,0,0,.1,0,0,0,0,0,0,0,0,0,0,0,0,.1,0,0,0,.1,0,.2,0,0,0,.2,0,.4,0,.2,0,.3-.1.4,0,.1,0,.2-.1.2,0,0,0,0-.1.1,0,0,0,0-.1,0,0,0,0,0-.1,0,0,0,0,0-.1,0,0,0-.1,0-.2,0,0,0-.1,0-.2,0,0,0-.2,0-.3,0-.1,0-.2,0-.3.1-.1,0-.3.1-.4.2-.1.1-.3.2-.5.4l-.9,3.7s0,0,0,.1c0,0,0,0-.2,0,0,0-.2,0-.3,0-.1,0-.3,0-.4,0-.2,0-.3,0-.4-.1-.1,0-.2,0-.2-.1,0,0,0,0-.1-.1,0,0,0,0,0-.1l1.5-6s0,0,0-.1c0,0,0,0,.1,0Zm-30.5-1.7c.2,0,.3,0,.5,0,.3,0,.6.2.8.4.2.2.4.5.5.8.1.3.2.6.3,1l.7,3.9s0,0,0,.1c0,0,0,0-.1.1,0,0-.1,0-.3,0-.1,0-.2,0-.4,0-.2,0-.3,0-.4,0s-.2,0-.3,0c0,0-.1,0-.2,0,0,0,0,0,0-.1l-.6-3.6c0-.2,0-.4-.2-.6,0-.2-.2-.3-.3-.4-.1-.1-.2-.2-.4-.2-.1,0-.3,0-.5,0-.2,0-.4.2-.6.3s-.4.5-.6.8l.7,4.1s0,0,0,.1c0,0,0,0-.1.1s-.1,0-.3,0c-.1,0-.2,0-.4,0-.2,0-.3,0-.4,0-.1,0-.2,0-.3,0,0,0-.1,0-.2,0,0,0,0,0,0-.1l-.6-3.6c0-.2,0-.4-.2-.6,0-.2-.2-.3-.3-.4,0-.1-.2-.2-.4-.2-.1,0-.3,0-.5,0-.2,0-.4.2-.6.3s-.4.5-.6.8l.7,4.1s0,0,0,.1,0,0-.1.1c0,0-.1,0-.3,0-.1,0-.2,0-.4,0-.2,0-.3,0-.4,0-.1,0-.2,0-.3,0,0,0-.1,0-.2,0,0,0,0,0,0-.1l-1.1-6.1s0,0,0-.1c0,0,0,0,.1-.1,0,0,.1,0,.2,0,0,0,.2,0,.4,0,.1,0,.3,0,.4,0,0,0,.2,0,.2,0,0,0,0,0,.1,0,0,0,0,0,0,.1v.7c.4-.4.7-.8,1-1s.6-.4,1-.5c.3,0,.5,0,.7,0,.2,0,.4,0,.6.1.2,0,.3.2.5.3.1.1.3.3.4.4.1-.2.3-.4.5-.6.2-.2.3-.3.5-.4.2-.1.3-.2.5-.3.2,0,.3-.1.5-.2.2,0,.4,0,.6,0Zm21-.1c.2,0,.4,0,.6,0,.2,0,.4,0,.6.1.2,0,.3.1.5.2s.3.1.4.2c0,0,.2.1.2.1,0,0,0,0,0,.1,0,0,0,0,0,.1,0,0,0,.1,0,.2s0,.2,0,.3c0,.1,0,.2,0,.3s0,.1,0,.2c0,0,0,0,0,0,0,0,0,0,0,0,0,0-.1,0-.2,0,0,0-.2-.1-.3-.2-.1,0-.3-.1-.4-.2-.2,0-.4-.1-.6-.1-.2,0-.3,0-.4,0-.1,0-.2,0-.3.1,0,0-.1.1-.2.2,0,0,0,.2,0,.3,0,.1,0,.3,0,.4,0,.1.2.2.3.3.1,0,.3.2.5.3.2,0,.4.2.5.3.2,0,.4.2.5.3.2.1.3.3.4.4s.2.4.3.6c0,.2,0,.5,0,.7,0,.3-.1.6-.3.9-.2.3-.4.5-.6.6-.3.2-.6.3-.9.3-.3,0-.7,0-1.1,0-.2,0-.5,0-.7-.1s-.4-.1-.5-.2c-.2,0-.3-.1-.4-.2-.1,0-.2-.1-.2-.2,0,0,0-.1,0-.2,0-.1,0-.3,0-.5,0-.1,0-.2,0-.3,0,0,0-.1,0-.2s0,0,0,0c0,0,0,0,.1,0,0,0,.1,0,.2.1,0,0,.2.1.3.2.1,0,.3.2.5.3.2,0,.4.1.7.2.2,0,.3,0,.4,0,.1,0,.2,0,.3-.1,0,0,.2-.1.2-.2,0,0,0-.2.1-.3,0-.1,0-.3,0-.4,0-.1-.2-.2-.3-.3-.1,0-.3-.2-.5-.3-.2,0-.3-.2-.5-.3-.2-.1-.3-.2-.5-.3-.2-.1-.3-.3-.4-.4-.1-.2-.2-.4-.3-.6,0-.2,0-.5,0-.8,0-.3.1-.6.3-.8.1-.2.3-.4.6-.6.2-.1.5-.3.8-.3.2,0,.3,0,.5,0Zm-15.9-.2c.1,0,.2,0,.3,0,0,0,.1,0,.1,0,0,0,0,0,0,.1l.5,6.2s0,0,0,.1c0,0,0,0-.1,0,0,0-.2,0-.3,0-.1,0-.3,0-.4,0-.2,0-.3,0-.4,0-.1,0-.2,0-.3,0,0,0-.1,0-.1,0s0,0,0-.1l-.5-6.2s0,0,0-.1c0,0,0,0,.1-.1,0,0,.2,0,.3,0,.1,0,.3,0,.4,0,.2,0,.3,0,.4,0Zm11,0c.1,0,.3,0,.4,0,.2,0,.3,0,.4,0,.1,0,.2,0,.3,0,0,0,.1,0,.1,0,0,0,0,0,0,.1l-.4,6.2s0,0,0,.1c0,0,0,0-.1,0,0,0-.2,0-.3,0-.1,0-.3,0-.4,0-.2,0-.3,0-.4,0-.1,0-.2,0-.3,0,0,0-.1,0-.1,0,0,0,0,0,0-.1l.4-6.2s0,0,0-.1c0,0,0,0,.1,0,0,0,.2,0,.3,0Zm-27.5-.2c0,0,.1,0,.2,0,0,0,0,0,0,.1l2.6,8.7s0,0,0,.1c0,0,0,0,0,.1,0,0-.1,0-.2.1,0,0-.2,0-.3.1-.1,0-.3,0-.4,0,0,0-.2,0-.2,0,0,0-.1,0-.1,0,0,0,0,0,0-.1l-.2-.7c-.2.4-.5.8-.7,1.1-.3.3-.6.5-1,.6-.5.1-.9.2-1.2,0-.4,0-.7-.2-1-.5-.3-.2-.5-.5-.7-.9-.2-.4-.4-.8-.5-1.2-.2-.5-.2-1-.3-1.5s0-.9.2-1.2c.1-.4.3-.7.6-.9.3-.3.6-.4,1.1-.6.3,0,.7-.1,1,0,.3,0,.6.2,1,.4l-1-3.2s0,0,0-.1c0,0,0,0,.1-.1,0,0,.1,0,.2-.1s.2,0,.4-.1c.2,0,.3,0,.4-.1.1,0,.2,0,.3,0Zm22.7-.1c.4,0,.8,0,1.1.2.3.1.5.3.7.6.2.2.3.5.4.8,0,.3.1.7.1,1.2v3.8s0,0,0,.1c0,0,0,0-.1,0s-.2,0-.3,0c-.1,0-.3,0-.4,0-.2,0-.3,0-.4,0s-.2,0-.3,0c0,0-.1,0-.1,0,0,0,0,0,0-.1v-3.5c0-.3,0-.5,0-.7,0-.2-.1-.3-.2-.4,0-.1-.2-.2-.3-.3-.1,0-.3,0-.5,0-.2,0-.4,0-.7.2-.2.2-.5.4-.7.7v4.1s0,0,0,.1c0,0,0,0-.1,0,0,0-.2,0-.3,0-.1,0-.3,0-.4,0-.2,0-.3,0-.4,0-.1,0-.2,0-.3,0,0,0-.1,0-.1,0,0,0,0,0,0-.1v-6.2s0,0,0-.1c0,0,0,0,.1,0,0,0,.1,0,.2,0,0,0,.2,0,.4,0,.1,0,.3,0,.4,0,0,0,.2,0,.2,0s0,0,.1,0c0,0,0,0,0,.1v.7c.3-.4.7-.7,1.1-.8.4-.2.7-.3,1.1-.3Zm15-.2c.1,0,.3,0,.4,0,.2,0,.3,0,.4,0,.1,0,.2,0,.3.1,0,0,0,0,.1.1,0,0,0,0,0,.1l-.3,1.4,1.3.2s0,0,.1,0c0,0,0,0,0,.1,0,0,0,.1,0,.2,0,0,0,.2,0,.3,0,.3-.1.4-.2.5,0,0-.1.1-.2.1l-1.3-.2-.5,2.9c0,.3,0,.6,0,.8,0,.2.2.3.5.4,0,0,.2,0,.3,0,0,0,.1,0,.2,0,0,0,.1,0,.2,0,0,0,0,0,.1,0,0,0,0,0,0,0,0,0,0,0,0,.1,0,0,0,.1,0,.2,0,0,0,.2,0,.3,0,.2,0,.4-.1.5,0,.1,0,.2-.1.2,0,0-.1,0-.2,0,0,0-.2,0-.3,0-.1,0-.2,0-.4,0-.1,0-.3,0-.4,0-.3,0-.6-.2-.9-.3-.2-.1-.4-.3-.6-.5-.1-.2-.2-.5-.2-.7,0-.3,0-.6,0-1l.6-3.1h-.7c0-.2-.1-.2-.2-.3,0-.1,0-.3,0-.5,0-.1,0-.2,0-.3,0,0,0-.2,0-.2,0,0,0,0,.1,0s0,0,.1,0h.7c0,.1.3-1.2.3-1.2,0,0,0,0,0-.1,0,0,0,0,.2,0,0,0,.2,0,.3,0Zm-21.8-2.1c.4,0,.7,0,.8.1.1.1.2.4.3.7,0,.4,0,.6-.2.7-.1.1-.4.2-.8.3-.4,0-.7,0-.8-.1-.1-.1-.2-.3-.3-.7,0-.4,0-.6.2-.7.1-.1.4-.2.8-.3Zm12.2,0c.4,0,.7.1.8.2.1.1.2.4.2.7,0,.4-.1.6-.3.7-.2.1-.4.2-.8.2-.4,0-.7-.1-.8-.2-.1-.1-.2-.4-.2-.7,0-.4.1-.6.3-.7.2-.1.4-.2.8-.2Z"/><rect class="cls-8" x="40" y="90.4" width="27" height="1"/><rect class="cls-8" x="42.9" y="79.4" width="33.8" height="1"/><rect class="cls-8" x="46.6" y="68" width="33.8" height="1"/><rect class="cls-8" x="38.3" y="102.6" width="24.4" height="1"/><path class="cls-1" d="m76.7,96.5l11-9.5v26.9h-11v-17.4Z"/><path class="cls-1" d="m105.8,85.6l10.1-8.8v37.1h-10.1v-28.3Z"/><path class="cls-4" d="m69.7,127.7l1,.4-5.8,17.5h25.8c1.1,0,2.3.4,3.3.8,1.8.8,3.4.8,5.2,0,1.2-.5,2.5-.9,3.7-.9h22.5s2,0,2,0h.9s0,0,0,0h0l-.7-2.3-5-15.1c.1-.1.3-.2.4-.3.3.3.8.6,1,1,2,5.7,4,11.4,6,17.1,0,.2,0,.4,0,.9h-27.2c-.9,0-1.9.3-2.7.7-2.2,1.1-4.3,1.2-6.5,0-1-.5-2.2-.8-3.3-.8h-25.1c-.6,0-1.2,0-2.2-.1,2.2-6.5,4.4-12.9,6.8-19.1Zm4.7-3.4l.6.5-4.4,14.4c2.1,2.3,12.9-1,17.2-.6,4.3.4,5.5,1.9,8.5,3v-15.4h.9v15.4c2.6-.8,3.9-2.7,7.8-3.1,3.9-.4,15.3,2.3,17.5,0l-4.1-13.7c.1-.1.2-.3.3-.4.4.3,1.1.5,1.3.9,2.1,6.1,4.2,12.2,6.2,18.2-4,0-7.7.1-11.5,0-5.5-.2-11.1-1.1-16.4,1.4-.8.4-2,.4-2.8,0-6-2.6-12.1-1.7-18.3-1.4l-10,.5c0-.5,0-.8.1-1.1,1.9-5.7,3.8-11.4,5.7-17,.2-.6.9-1.1,1.4-1.7Z"/><path class="cls-3" d="m172.4,111.8c0-2.8,2.3-5.1,5.1-5.1s5.1,2.3,5.1,5.1-2.3,5.1-5.1,5.1-5.1-2.3-5.1-5.1Z"/><path class="cls-3" d="m9.7,111.8c0-2.8,2.3-5.1,5.1-5.1s5.1,2.3,5.1,5.1-2.3,5.1-5.1,5.1-5.1-2.3-5.1-5.1Z"/><path class="cls-2" d="m96,0c53,0,96,43,96,96s-43,96-96,96S0,149,0,96,43,0,96,0Zm0,4C45.2,4,4,45.2,4,96s41.2,92,92,92,92-41.2,92-92S146.8,4,96,4Z"/><path class="cls-1" d="m25.3,94.9c0-39.2,31.8-71,71-71s71,31.8,71,71-31.8,71-71,71S25.3,134.2,25.3,94.9Zm7.8,0c0,34.9,28.3,63.2,63.2,63.2s63.2-28.3,63.2-63.2-28.3-63.2-63.2-63.2-63.2,28.3-63.2,63.2Z"/><path class="cls-4" d="m124.7,61.2l-2.7,12.5-3.1-3.3-21,19.6h0s0,0,0,0l-8.2-8.8-20.5,19.1-3.9-4.2,24.5-22.8h0s0,0,0,0l8.2,8.8,17-15.8-3-3.2,12.7-1.8Z"/><path class="cls-1" d="m91.4,86.9l6.5,6.2,3.5-2.8v23.5h-10.1v-26.9Z"/><path class="cls-1" d="m90.4,54.3l-6,4v15.9l6-4v-15.9Z"/><path class="cls-1" d="m102.2,54.3v19.9l6-4v-11.9l-6-4Z"/><path class="cls-4" d="m92.7,48.6c.2-4.1-5.8-6.1-1.9-9.2-.2,4.2,6,6.1,1.9,9.2Z"/><path class="cls-4" d="m96,49.1c.2-5.7-7.8-8.4-2.6-12.6-.3,5.8,8.1,8.3,2.6,12.6Z"/><path class="cls-4" d="m99.3,48.1c.3-6.3-8.6-9.4-2.8-14-.3,6.4,8.9,9.2,2.8,14Z"/><path class="cls-1" d="m98.5,49.9v29.4l-4.9-5.8h0c0-.1-.2-.1-.2-.1h0c0-7.9,0-15.4,0-23.2l2.4,2,2.5-2.2Z"/><rect class="cls-5" x="39.7" y="116.3" width="112.1" height="1.7"/><rect class="cls-8" x="65.3" y="45.4" width="19.6" height="1"/><rect class="cls-8" x="55.1" y="56.9" width="24.4" height="1"/><rect class="cls-8" x="120.1" y="90.6" width="31.2" height="1"/><rect class="cls-8" x="122" y="80.1" width="26.4" height="1"/><rect class="cls-8" x="127.8" y="68.6" width="16.9" height="1"/><rect class="cls-8" x="120.1" y="102.5" width="32.9" height="1"/><rect class="cls-8" x="106.4" y="45.4" width="19.6" height="1"/><rect class="cls-8" x="111.9" y="56.9" width="24.4" height="1"/></g></g></svg>